<?xml version="1.0" encoding="utf-8"?>
<!-- Generator: Adobe Illustrator 24.1.1, SVG Export Plug-In . SVG Version: 6.00 Build 0)  -->
<svg version="1.1" id="Capa_1" xmlns="http://www.w3.org/2000/svg" xmlns:xlink="http://www.w3.org/1999/xlink" x="0px" y="0px"
	 viewBox="0 0 30.1 30.1" style="enable-background:new 0 0 30.1 30.1;" xml:space="preserve">
<style type="text/css">
	.st0{fill:#E63946;}
</style>
<g>
	<path class="st0" d="M20,2.4v3.8c3.5,1.8,5.9,5.4,5.9,9.6c0,6-4.8,10.8-10.8,10.8c-6,0-10.8-4.9-10.8-10.8c0-3.8,2-7.2,5-9.1v-4
		c-5,2.2-8.5,7.3-8.5,13.1c0,7.9,6.4,14.3,14.3,14.3c7.9,0,14.3-6.4,14.3-14.3C29.4,9.6,25.5,4.4,20,2.4z"/>
	<path class="st0" d="M14.8,17.7c1.6,0,1.7-0.9,1.7-2.1V2.1c0-1.1-0.2-2.1-1.7-2.1c-1.6,0-1.7,0.9-1.7,2.1v13.5
		C13.1,16.7,13.2,17.7,14.8,17.7z"/>
</g>
</svg>
